<svg width="54" height="50" viewBox="0 0 54 50" fill="none" xmlns="http://www.w3.org/2000/svg">
<path d="M54 15.4294C53.9803 13.7345 53.1781 12.2123 51.8433 11.2085C50.2455 10.0121 48.194 10.2447 46.3201 10.2447H39.6725C39.6791 8.46335 39.7054 6.68199 39.666 4.9005C39.6331 3.18561 38.7389 1.61683 37.2988 0.712896C36.5164 0.221015 35.5959 0.00831028 34.6819 0.00166175H32.1439H19.7431C19.5327 0.00166175 19.3223 -0.00498526 19.1119 0.00830876C17.4484 0.114661 15.9098 1.00536 15.0748 2.48103C14.2792 3.88354 14.4238 5.47214 14.4238 7.02099V10.2447H5.56043H5.17248C3.94948 10.2514 2.82519 10.6768 1.87837 11.4478C0.694825 12.4117 0.0373719 13.9072 0.0175336 15.4294V15.8349V39.6979C0.0175336 41.4327 -0.021917 43.1743 0.0175336 44.9024C0.0898604 47.7274 2.39116 49.9742 5.17248 49.9941H6.46775H44.7941C46.1487 49.9941 47.4966 50.0074 48.851 49.9941C51.6454 49.9675 53.9271 47.7009 53.9929 44.8759V44.8095V15.8088C53.9994 15.6825 53.9994 15.5562 53.9994 15.4299L54 15.4294ZM18.3235 4.81416C18.3367 4.77428 18.3564 4.74105 18.3695 4.70116C18.3761 4.66128 18.3827 4.6214 18.3893 4.58152C18.3827 4.61475 18.3827 4.65463 18.3827 4.68787C18.4156 4.61475 18.4419 4.54164 18.4747 4.47516C18.4945 4.42864 18.5142 4.38211 18.5339 4.33558C18.5142 4.37546 18.5011 4.42199 18.4879 4.46188C18.5142 4.43529 18.5339 4.4087 18.5602 4.38212L18.5865 4.34223C18.626 4.28241 18.6654 4.24253 18.6852 4.22259C18.4484 4.38212 18.7246 4.17606 18.8167 4.11623C18.8232 4.10959 18.8232 4.10959 18.8298 4.10959C18.7904 4.12288 18.7509 4.14282 18.7115 4.15612C18.8298 4.10294 18.9482 4.05641 19.0665 4.00324C19.0271 4.00324 18.9876 4.00988 18.9547 4.01653C18.9942 4.00988 19.0402 4.00324 19.0797 3.99659C19.1126 3.9833 19.152 3.97 19.1849 3.95006C19.152 3.96336 19.1257 3.97665 19.0928 3.98994L19.4742 3.93677C19.3887 3.95006 19.3032 3.96336 19.2178 3.9833C19.7306 3.95006 20.2566 3.9833 20.7695 3.9833H32.9995C33.6241 3.9833 34.2685 3.93677 34.8998 3.9833C34.8143 3.96336 34.7354 3.95006 34.6499 3.93677L35.0313 3.98994C34.9984 3.97665 34.9721 3.96336 34.9392 3.95006C34.9721 3.96336 35.005 3.9833 35.0444 3.99659C35.0839 4.00324 35.1299 4.00989 35.1693 4.01653C35.1299 4.00988 35.0904 4.00988 35.051 4.00324C35.1693 4.05641 35.2877 4.10294 35.406 4.15612C35.36 4.13618 35.314 4.11624 35.2745 4.10294L35.3403 4.16941C35.36 4.18271 35.3732 4.196 35.3929 4.20265C35.4389 4.22924 35.4718 4.26247 35.4915 4.28241C35.3666 4.08965 35.5507 4.33559 35.6099 4.42864L35.6165 4.43529C35.6033 4.40205 35.5901 4.36217 35.577 4.32894C35.5967 4.36882 35.6099 4.4087 35.6296 4.44858C35.6362 4.45523 35.6362 4.46188 35.6362 4.46852C35.6691 4.54164 35.6954 4.61476 35.7282 4.68788C35.7282 4.65464 35.7217 4.61476 35.7151 4.57488C35.7217 4.61476 35.7282 4.65464 35.7348 4.69452C35.748 4.73441 35.7677 4.76764 35.7808 4.80752C35.7677 4.77429 35.7545 4.74105 35.7348 4.70782C35.7545 4.84076 35.7677 4.9737 35.7874 5.1C35.7743 5.01358 35.7611 4.93382 35.7414 4.84741C35.794 5.56528 35.7414 6.30316 35.7414 7.01432V10.2448H18.363V5.63843C18.363 5.37255 18.3565 5.10002 18.3696 4.83414C18.3499 4.9272 18.3302 5.02025 18.317 5.11332C18.3367 4.98037 18.3499 4.84744 18.3696 4.72114C18.3499 4.74773 18.3367 4.78093 18.3235 4.81416ZM47.4257 26.6631H32.6973V29.0694C32.763 29.7872 32.0792 30.3922 31.3888 30.3922C31.3559 30.3922 31.3362 30.3855 31.3033 30.3855H22.6898C21.9796 30.3855 21.3879 29.7873 21.3879 29.0694V26.6632H6.59332C5.8569 26.6632 5.31117 26.0517 5.27822 25.3337C5.24528 24.6158 5.90287 24.0043 6.59332 24.0043H21.3879V21.598C21.3879 20.8802 21.9797 20.2819 22.6898 20.2819H31.3953C32.1054 20.2819 32.6972 20.8802 32.6972 21.598V24.0043H47.4256C48.162 24.0043 48.7077 24.6158 48.7407 25.3337C48.7736 26.0517 48.116 26.6632 47.4256 26.6632L47.4257 26.6631Z" fill="#3CB9BC"/>
</svg>
