<svg width="50" height="50" viewBox="0 0 50 50" fill="none" xmlns="http://www.w3.org/2000/svg">
<path d="M32.4842 6.30585C30.5838 4.25409 27.9295 3.12421 24.9998 3.12421C22.0545 3.12421 19.3914 4.24725 17.4998 6.28631C15.5877 8.34784 14.656 11.1496 14.8748 14.175C15.3084 20.1437 19.8504 24.9992 24.9998 24.9992C30.1492 24.9992 34.6834 20.1447 35.1238 14.1769C35.3455 11.1789 34.408 8.38299 32.4842 6.30585Z" fill="#3CB9BC"/>
<path d="M42.1873 46.8721H7.81233C7.36239 46.8779 6.9168 46.7834 6.50799 46.5954C6.09918 46.4074 5.73743 46.1306 5.44904 45.7852C4.81428 45.0264 4.55842 43.9902 4.74787 42.9424C5.57209 38.3701 8.14436 34.5293 12.1873 31.833C15.7791 29.4395 20.3289 28.1221 24.9998 28.1221C29.6707 28.1221 34.2205 29.4404 37.8123 31.833C41.8553 34.5283 44.4275 38.3691 45.2518 42.9414C45.4412 43.9893 45.1854 45.0254 44.5506 45.7842C44.2623 46.1298 43.9006 46.4067 43.4918 46.5949C43.083 46.7831 42.6373 46.8778 42.1873 46.8721Z" fill="#3CB9BC"/>
</svg>
