<svg width="25" height="25" viewBox="0 0 25 25" fill="none" xmlns="http://www.w3.org/2000/svg">
<g clip-path="url(#clip0_421_3027)">
<path d="M24.9868 12.7339C24.9868 11.7097 24.9018 10.9622 24.7177 10.1871H12.749V14.81H19.7744C19.6328 15.9589 18.8679 17.689 17.1682 18.8516L17.1444 19.0064L20.9286 21.8712L21.1908 21.8968C23.5987 19.7237 24.9868 16.5263 24.9868 12.7339Z" fill="#4285F4"/>
<path d="M12.749 24.9141C16.1908 24.9141 19.0803 23.8068 21.1908 21.8968L17.1682 18.8516C16.0917 19.5852 14.647 20.0973 12.749 20.0973C9.37797 20.0973 6.51684 17.9243 5.49692 14.9208L5.34743 14.9332L1.41248 17.9091L1.36102 18.0489C3.45729 22.1181 7.76319 24.9141 12.749 24.9141Z" fill="#34A853"/>
<path d="M5.49684 14.9208C5.22773 14.1457 5.07199 13.3151 5.07199 12.457C5.07199 11.5988 5.22773 10.7684 5.48269 9.99328L5.47556 9.8282L1.4913 6.80453L1.36094 6.86513C0.49697 8.55377 0.0012207 10.4501 0.0012207 12.457C0.0012207 14.464 0.49697 16.3602 1.36094 18.0488L5.49684 14.9208Z" fill="#FBBC05"/>
<path d="M12.749 4.81671C15.1427 4.81671 16.7574 5.82711 17.6781 6.67148L21.2758 3.23885C19.0662 1.23189 16.1908 1.52588e-05 12.749 1.52588e-05C7.76319 1.52588e-05 3.45729 2.79591 1.36102 6.86519L5.48277 9.99333C6.51684 6.9898 9.37797 4.81671 12.749 4.81671Z" fill="#EB4335"/>
</g>
<defs>
<clipPath id="clip0_421_3027">
<rect width="25" height="25" fill="white"/>
</clipPath>
</defs>
</svg>
